<?xml version="1.0" encoding="utf-8" ?>
<svg xmlns="http://www.w3.org/2000/svg" xmlns:xlink="http://www.w3.org/1999/xlink" width="512" height="512">
	<defs>
		<linearGradient id="gradient_0" gradientUnits="userSpaceOnUse" x1="642.12463" y1="614.90387" x2="124.73175" y2="141.04756">
			<stop offset="0" stop-color="#261050"/>
			<stop offset="1" stop-color="#4D2A90"/>
		</linearGradient>
	</defs>
	<path fill="url(#gradient_0)" transform="scale(0.666667 0.666667)" d="M198.739 120.155L238.355 98.7479L313.807 56.8125L347.599 38.2362C355.301 33.9584 363.164 28.9786 371.426 25.8951C377.784 23.5218 384.116 22.5355 390.76 24.3632C398.594 26.5178 406.061 30.9121 413.176 34.759L441.165 50.0625L559.222 114.563L634.731 155.414C647.877 162.532 661.398 169.176 674.048 177.161C679.958 180.893 685.232 185.302 688.713 191.461C692.318 197.839 693.77 205.174 694.123 212.43L694.218 229.102L693.89 271.501L693.855 388.429L693.865 477.69L694.207 518.809C694.223 530.847 695.173 543.388 691.854 555.108C688.702 566.234 682.182 574.713 672.051 580.35L635.58 599.817L498.062 674.593L427.05 713.655C416.516 719.407 406.079 726.199 395.075 730.967C390.347 733.015 384.901 734.172 379.849 732.727L377.275 731.898C369.849 729.431 362.889 724.865 356.065 721.075L326.386 704.754L259.773 669.34L206.105 639.892L133.534 600.609L109.518 588.133C104.213 585.421 98.592 582.833 93.5633 579.637C87.2089 575.598 82.1521 570.68 78.768 563.861C76.616 559.524 75.3915 555.326 74.3259 550.628C73.3624 546.381 73.5429 541.498 73.4597 537.152L73.495 508.374L73.6341 425.539L73.6348 280.92L73.6276 234.343C73.6266 225.823 73.2312 217.089 73.8276 208.6C74.2693 202.312 76.2598 195.722 79.655 190.399C82.5895 185.799 86.1342 182.26 90.5284 179.035C92.1208 180.54 92.3075 181.479 92.3737 183.625C95.8641 187.816 100.932 190.909 100.272 197.062C100.183 197.889 99.8418 198.608 99.6493 199.399L99.5539 199.949C96.4654 205.667 95.5737 211.525 95.226 217.947L94.9648 244.171L94.9708 284.928L94.985 412.067L94.9764 487.658L94.7739 521.704C94.783 530.179 94.0683 539.85 96.3981 548.062C98.3025 554.776 102.498 559.92 108.114 563.929C117.074 570.325 127.707 574.882 137.411 580.065L193.443 609.985L232.701 631.988L357.064 699.258C366.501 704.518 378.737 712.974 389.924 709.72L390.562 709.53C397.893 707.405 404.808 703.22 411.454 699.526L433.3 687.342L504.331 647.874L601.62 595.014L653.141 567.016C657.546 564.423 661.659 561.501 664.862 557.473C668.57 552.808 670.678 546.797 671.171 540.89C671.68 534.803 671.261 528.583 671.25 522.471L671.223 487.694L671.243 375.707L671.244 269.385L671.238 236.923C671.235 228.79 671.409 220.327 670.536 212.25C670.098 208.196 669.086 204.335 667.061 200.769C664.444 196.161 660.274 192.558 655.837 189.76C648.28 184.993 640.311 180.936 632.417 176.77L609.399 164.311L516.414 113.456L441.887 72.4802L414.029 57.2155C405.743 52.6904 396.943 47.0543 387.781 44.5566C384.441 43.6458 380.514 43.8116 377.25 44.9493C371.355 47.004 365.524 50.105 359.988 52.991L328.395 70.6307L281.024 96.9533L247.174 115.678C241.338 115.35 235.495 121.192 229.776 122.626C227.287 123.249 225.537 123.75 222.936 123.135C219.508 122.324 215.132 124.034 211.5 123.843C207.718 123.645 205.046 120.859 201 121.338L201 121.125L201.566 120.938C202.146 120.591 202.134 119.695 202.266 119.101L201.847 119.36C200.909 119.858 199.79 120.053 198.739 120.155Z"/>
	<defs>
		<linearGradient id="gradient_1" gradientUnits="userSpaceOnUse" x1="514.29657" y1="649.35712" x2="251.67017" y2="105.6706">
			<stop offset="0" stop-color="#8764D1"/>
			<stop offset="1" stop-color="#9080DE"/>
		</linearGradient>
	</defs>
	<path fill="url(#gradient_1)" transform="scale(0.666667 0.666667)" d="M247.174 115.678L281.024 96.9533L328.395 70.6307L359.988 52.991C365.524 50.105 371.355 47.004 377.25 44.9493C380.514 43.8116 384.441 43.6458 387.781 44.5566C396.943 47.0543 405.743 52.6904 414.029 57.2155L441.887 72.4802L516.414 113.456L609.399 164.311L632.417 176.77C640.311 180.936 648.28 184.993 655.837 189.76C660.274 192.558 664.444 196.161 667.061 200.769C669.086 204.335 670.098 208.196 670.536 212.25C671.409 220.327 671.235 228.79 671.238 236.923L671.244 269.385L671.243 375.707L671.223 487.694L671.25 522.471C671.261 528.583 671.68 534.803 671.171 540.89C670.678 546.797 668.57 552.808 664.862 557.473C661.659 561.501 657.546 564.423 653.141 567.016L601.62 595.014L504.331 647.874L433.3 687.342L411.454 699.526C404.808 703.22 397.893 707.405 390.562 709.53L389.924 709.72C378.737 712.974 366.501 704.518 357.064 699.258L232.701 631.988L193.443 609.985L137.411 580.065C127.707 574.882 117.074 570.325 108.114 563.929C102.498 559.92 98.3025 554.776 96.3981 548.062C94.0683 539.85 94.783 530.179 94.7739 521.704L94.9764 487.658L94.985 412.067L94.9708 284.928L94.9648 244.171L95.226 217.947C95.5737 211.525 96.4654 205.667 99.5539 199.949L99.6493 199.399C99.8418 198.608 100.183 197.889 100.272 197.062C100.932 190.909 95.8641 187.816 92.3737 183.625C92.3075 181.479 92.1208 180.54 90.5284 179.035C95.3964 175.547 100.693 172.911 105.965 170.104L132.005 156.489L198.739 120.155C199.79 120.053 200.909 119.858 201.847 119.36L202.266 119.101C202.134 119.695 202.146 120.591 201.566 120.938L201 121.125L201 121.338C205.046 120.859 207.718 123.645 211.5 123.843C215.132 124.034 219.508 122.324 222.936 123.135C225.537 123.75 227.287 123.249 229.776 122.626C235.495 121.192 241.338 115.35 247.174 115.678Z"/>
	<path fill="#6F31B5" transform="scale(0.666667 0.666667)" d="M198.739 120.155C199.79 120.053 200.909 119.858 201.847 119.36L202.266 119.101C202.134 119.695 202.146 120.591 201.566 120.938L201 121.125L201 121.338C205.046 120.859 207.718 123.645 211.5 123.843C215.132 124.034 219.508 122.324 222.936 123.135C225.537 123.75 227.287 123.249 229.776 122.626C235.495 121.192 241.338 115.35 247.174 115.678C236.229 122.765 223.968 128.561 212.509 134.812L139.324 174.626L122.754 183.605C117.274 186.487 111.592 189.319 106.54 192.92C103.87 194.823 101.591 197.393 99.5539 199.949L99.6493 199.399C99.8418 198.608 100.183 197.889 100.272 197.062C100.932 190.909 95.8641 187.816 92.3737 183.625C92.3075 181.479 92.1208 180.54 90.5284 179.035C95.3964 175.547 100.693 172.911 105.965 170.104L132.005 156.489L198.739 120.155Z"/>
	<path fill="#6F31B5" transform="scale(0.666667 0.666667)" d="M380.959 48.5083C384.659 48.3268 388.273 48.7915 391.77 50.017C396.427 51.6492 400.816 54.0129 405.19 56.2781L430.492 70.2027L486.634 100.627L524.625 121.905L555.643 138.488L616.5 172.071C629.44 179.196 643.108 185.353 655.499 193.416C659.81 196.221 663.312 199.726 665.509 204.444C667.369 208.441 668.309 212.926 668.547 217.312C668.877 223.36 668.625 229.359 668.6 235.405L668.589 264.327L668.585 360.563L668.623 450.129L668.988 485.625L668.618 501.102L668.357 534.716C668.161 539.381 667.658 543.837 666.068 548.25C665.409 550.08 664.499 552.115 663.371 553.706C660.39 557.91 656.62 560.845 652.221 563.46L637.25 571.457L612.962 584.495L548.877 619.419L435.378 682.123L413.747 694.076L401.636 700.821C396.878 703.47 392.354 706.061 386.972 707.172C381.929 707.388 378.061 706.549 373.489 704.415C366.962 701.368 360.767 697.542 354.514 693.982L322.357 676.008L258.375 641.961L202.408 610.883L140.091 577.349C130.694 572.348 120.787 567.728 111.769 562.095C105.401 558.117 100.709 551.864 99.099 544.486C98.1565 540.165 98.4766 535.473 98.4699 531.066L98.4654 511.256L98.4767 440.535L98.4755 294.534L98.6609 243.831C98.7159 235.448 98.2618 227.086 98.7477 218.701C99.109 212.468 100.357 206.323 103.877 201.06C105.96 197.946 109.376 195.569 112.578 193.728L153.057 171.915L249.972 119.281L326.87 76.3616L352.978 61.6157C361.865 56.6017 370.734 50.3455 380.959 48.5083Z"/>
	<path fill="#2E135E" transform="scale(0.666667 0.666667)" d="M384.623 615.581L383.625 615.791C380.195 615.056 376.127 611.638 372.981 609.836L340.938 591.515L297.46 568.083L236.122 535.218L202 517.267L188.283 510.377C186.686 509.579 183.539 508.336 182.39 506.987C181.877 506.385 182.025 506.094 182.024 505.363L182.043 299.53C183.745 297.975 185.545 296.777 187.539 295.644L235.396 269.876L289.796 240.352L333.615 217.304L364.426 200.893L376.428 194.297C378.834 192.966 381.391 191.235 384.058 190.552C384.026 194.953 384.513 200.083 383.891 204.394C381.235 205.39 378.744 206.948 376.26 208.311L365.113 214.347L325.56 235.628L196.451 305.069L196.158 349.299C205.95 342.724 216.299 337.399 226.669 331.814L263.304 312.108L302.248 290.5L352.035 264.707L373.254 253.688C376.627 251.959 380.632 249.433 384.298 248.592C385.386 251.489 383.833 254.974 383.949 257.973C382.286 257.462 380.076 258.798 378.594 259.579L196.458 357.576L196.676 493.863C210.129 485.125 224.65 478.083 238.898 470.742L287.385 445.6C319.587 429.091 351.343 411.065 384.562 396.683L385.681 397.122C385.87 402.803 386.817 410.645 384.655 415.936C378.801 418.145 373.31 421.545 367.73 424.366L333.612 441.797L245.93 487.014L227.854 495.938C222.813 498.477 217.795 501.296 212.391 503.016L272.235 534.361L342 571.895L378.492 592.063C380.129 592.959 382.356 595.034 383.969 595.506L384.061 615.173L384.623 615.581Z"/>
	<path fill="#150B17" transform="scale(0.666667 0.666667)" d="M384.058 190.552C385.133 190.433 385.738 190.548 386.733 191.007C392.204 193.529 397.522 196.661 402.859 199.474L429.252 213.181L526.305 264.457L567.216 286.715L578.327 292.884C581.18 294.458 584.213 295.981 586.752 298.033L587.986 299.091L587.492 439.475L587.257 486.874L587.277 500.014C587.283 502.194 587.505 504.627 587.2 506.777L384.623 615.581L384.061 615.173L383.969 595.506L555.842 502.675L499.756 474.331L427.408 437.793L398.344 423.126L389.907 418.918C388.355 418.14 386.515 417.424 385.164 416.353L384.655 415.936C386.817 410.645 385.87 402.803 385.681 397.122L572.584 493.225L573.048 356.218L384.591 258.394L383.949 257.973C383.833 254.974 385.386 251.489 384.298 248.592L385.317 248.25C389.846 249.571 394.867 253.103 399.115 255.319L428.627 270.52L521.684 318.516L573.347 346.501L573.008 304.855C566.34 300.426 559.249 296.858 552.201 293.099L520.22 276.236L420.855 223.857L396.403 211.148C392.713 209.265 387.54 207.367 384.363 204.79L383.891 204.394C384.513 200.083 384.026 194.953 384.058 190.552Z"/>
	<path fill="#FEB004" transform="scale(0.666667 0.666667)" d="M383.891 204.394L384.363 204.79C387.54 207.367 392.713 209.265 396.403 211.148L420.855 223.857L520.22 276.236L552.201 293.099C559.249 296.858 566.34 300.426 573.008 304.855L573.347 346.501L521.684 318.516L428.627 270.52L399.115 255.319C394.867 253.103 389.846 249.571 385.317 248.25L384.298 248.592C380.632 249.433 376.627 251.959 373.254 253.688L352.035 264.707L302.248 290.5L263.304 312.108L226.669 331.814C216.299 337.399 205.95 342.724 196.158 349.299L196.451 305.069L325.56 235.628L365.113 214.347L376.26 208.311C378.744 206.948 381.235 205.39 383.891 204.394Z"/>
	<path fill="#FEB004" transform="scale(0.666667 0.666667)" d="M384.655 415.936L385.164 416.353C386.515 417.424 388.355 418.14 389.907 418.918L398.344 423.126L427.408 437.793L499.756 474.331L555.842 502.675L383.969 595.506C382.356 595.034 380.129 592.959 378.492 592.063L342 571.895L272.235 534.361L212.391 503.016C217.795 501.296 222.813 498.477 227.854 495.938L245.93 487.014L333.612 441.797L367.73 424.366C373.31 421.545 378.801 418.145 384.655 415.936Z"/>
	<path fill="#FEB004" transform="scale(0.666667 0.666667)" d="M385.681 397.122L384.562 396.683C351.343 411.065 319.587 429.091 287.385 445.6L238.898 470.742C224.65 478.083 210.129 485.125 196.676 493.863L196.458 357.576L378.594 259.579C380.076 258.798 382.286 257.462 383.949 257.973L384.591 258.394L573.048 356.218L572.584 493.225L385.681 397.122Z"/>
	<path fill="#2E135E" transform="scale(0.666667 0.666667)" d="M255.809 377.69C256.143 377.59 256.463 377.361 256.81 377.391C257.716 377.469 259.825 378.776 260.685 379.192L275.233 386.531L284.983 392.212L285.273 433.83L256.494 449.135L255.704 448.848L255.751 433.861C256.346 431.848 256.2 429.362 256.231 427.266L256.118 414.872L255.749 391.133C255.757 386.786 256.247 381.97 255.809 377.69Z"/>
	<path fill="#FEB004" transform="scale(0.666667 0.666667)" d="M255.749 391.133L273.298 400.91L273.051 424.96C269.159 427.239 259.761 433.688 255.751 433.861C256.346 431.848 256.2 429.362 256.231 427.266L256.118 414.872L255.749 391.133Z"/>
	<path fill="#6F31B5" transform="scale(0.666667 0.666667)" d="M255.704 448.848L224.452 432.964C225.59 426.922 225.488 420.45 225.383 414.327L224.968 393.132C228.781 390.645 233.203 388.668 237.239 386.532C242.827 383.573 249.646 378.94 255.809 377.69C256.247 381.97 255.757 386.786 255.749 391.133L256.118 414.872L256.231 427.266C256.2 429.362 256.346 431.848 255.751 433.861L255.704 448.848Z"/>
	<path fill="white" transform="scale(0.666667 0.666667)" d="M255.751 433.861C253.239 433.432 251.036 432.17 248.783 431.033L236.235 424.18L236.708 400.964L245.718 396.337C248.901 394.516 252.038 391.683 255.749 391.133L256.118 414.872L256.231 427.266C256.2 429.362 256.346 431.848 255.751 433.861Z"/>
	<path fill="#6F31B5" transform="scale(0.666667 0.666667)" d="M384.775 304.414C385.708 306.686 385.391 309.936 385.398 312.386C385.413 317.222 385.664 322.253 385.102 327.055L384.988 373.179L385.473 373.46L385.354 385.572C385.322 387.488 385.458 390.009 384.798 391.813L345.759 371.724C346.752 365.641 346.282 359.367 346.265 353.239L346.208 323.773C351.104 320.086 357.497 317.741 363 315.005C370.234 311.409 377.271 307.427 384.775 304.414Z"/>
	<path fill="white" transform="scale(0.666667 0.666667)" d="M384.988 373.179L361.486 361.322L361.185 337.988L373.2 332.225C376.554 330.575 381.334 326.945 385.102 327.055L384.988 373.179Z"/>
	<path fill="#2E135E" transform="scale(0.666667 0.666667)" d="M384.775 304.414L385.694 303.956C391.984 306.11 397.519 309.676 403.327 312.83L428.325 325.498L428.224 370.982L385.526 392.296L384.798 391.813C385.458 390.009 385.322 387.488 385.354 385.572L385.473 373.46L384.988 373.179L385.102 327.055C385.664 322.253 385.413 317.222 385.398 312.386C385.391 309.936 385.708 306.686 384.775 304.414Z"/>
	<path fill="#FEB004" transform="scale(0.666667 0.666667)" d="M385.102 327.055L411.552 338.99L411.723 359.951L397.375 367.609C393.719 369.517 390.101 371.6 386.272 373.137L385.773 373.341L385.473 373.46L384.988 373.179L385.102 327.055Z"/>
</svg>
